<svg width="25" height="20" viewBox="0 0 25 20" fill="none" xmlns="http://www.w3.org/2000/svg">
<path fill-rule="evenodd" clip-rule="evenodd" d="M23.1048 11.0971C23.6382 11.0238 24.0493 10.5606 24.0493 10.0001C24.0493 9.38872 23.56 8.89305 22.9565 8.89305L3.74712 8.89305L10.6863 1.89154L10.7923 1.7676C11.1107 1.33486 11.0767 0.719738 10.6895 0.325882C10.2636 -0.107358 9.57165 -0.10881 9.14399 0.322641L0.344105 9.20057C0.29171 9.25142 0.244303 9.3075 0.202702 9.36798C-0.0952244 9.80032 -0.053257 10.4001 0.328592 10.7853L9.14406 19.6774L9.26685 19.7844C9.69536 20.105 10.3024 20.0679 10.6895 19.6741C11.1154 19.2408 11.1139 18.5398 10.6862 18.1084L3.74539 11.1072L22.9565 11.1072L23.1048 11.0971Z" fill="white"/>
</svg>
