<svg width="25" height="20" viewBox="0 0 25 20" fill="none" xmlns="http://www.w3.org/2000/svg">
<path fill-rule="evenodd" clip-rule="evenodd" d="M1.89522 11.0971C1.36181 11.0238 0.950684 10.5606 0.950684 10.0001C0.950684 9.38872 1.43996 8.89305 2.04351 8.89305L21.2529 8.89305L14.3137 1.89154L14.2077 1.7676C13.8893 1.33486 13.9233 0.719738 14.3105 0.325882C14.7364 -0.107358 15.4283 -0.10881 15.856 0.322641L24.6559 9.20057C24.7083 9.25142 24.7557 9.3075 24.7973 9.36798C25.0952 9.80032 25.0533 10.4001 24.6714 10.7853L15.8559 19.6774L15.7331 19.7844C15.3046 20.105 14.6976 20.0679 14.3105 19.6741C13.8846 19.2408 13.8861 18.5398 14.3138 18.1084L21.2546 11.1072L2.04351 11.1072L1.89522 11.0971Z" fill="white"/>
</svg>
