<svg width="19" height="20" viewBox="0 0 19 20" fill="none" xmlns="http://www.w3.org/2000/svg">
<path fill-rule="evenodd" clip-rule="evenodd" d="M9.50017 0.25H9.45132H9.4513C7.91582 0.249988 6.69607 0.249978 5.72569 0.366014C4.72642 0.485506 3.90134 0.736377 3.19991 1.30172C3.08092 1.39763 2.96663 1.49923 2.85743 1.60616C2.21375 2.23646 1.86787 3.02643 1.63205 4.00481C1.40304 4.95489 1.26005 6.16624 1.08004 7.69114L1.07431 7.73966L0.810516 9.97414L0.803477 10.0338C0.563369 12.0675 0.373779 13.6733 0.401053 14.9357C0.429056 16.2319 0.685622 17.2958 1.44998 18.1557C2.21433 19.0156 3.24088 19.3952 4.5248 19.5749C5.77531 19.75 7.39229 19.75 9.44013 19.75H9.50017H9.56021C11.608 19.75 13.225 19.75 14.4755 19.5749C15.7595 19.3952 16.786 19.0156 17.5504 18.1557C18.3147 17.2958 18.5713 16.2319 18.5993 14.9357C18.6266 13.6733 18.437 12.0675 18.1969 10.0337L18.1898 9.97414L17.926 7.73966L17.9203 7.69122L17.9203 7.69116C17.7403 6.16625 17.5973 4.9549 17.3683 4.00481C17.1325 3.02643 16.7866 2.23646 16.1429 1.60616C16.0337 1.49923 15.9194 1.39763 15.8004 1.30172C15.099 0.736377 14.2739 0.485506 13.2746 0.366014C12.3043 0.249978 11.0845 0.249988 9.54904 0.25H9.54903H9.50017ZM4.14122 2.4696C4.53864 2.14929 5.05144 1.95733 5.90379 1.8554C6.77477 1.75125 7.90482 1.75 9.50017 1.75C11.0955 1.75 12.2256 1.75125 13.0966 1.8554C13.9489 1.95733 14.4617 2.14929 14.8591 2.4696C14.9405 2.53522 15.0187 2.60473 15.0935 2.6779C15.4581 3.03501 15.7089 3.52177 15.9101 4.3563C16.1156 5.20906 16.2493 6.33117 16.4364 7.91552L16.7002 10.15C16.9489 12.2566 17.1244 13.7581 17.0996 14.9033C17.0754 16.0271 16.8583 16.6765 16.4293 17.1592C16.0002 17.6418 15.3807 17.9336 14.2675 18.0894C13.1331 18.2483 11.6214 18.25 9.50017 18.25C7.37896 18.25 5.86719 18.2483 4.7328 18.0894C3.61962 17.9336 3.00011 17.6418 2.57109 17.1592C2.14207 16.6765 1.92498 16.0271 1.9007 14.9033C1.87596 13.7581 2.05148 12.2566 2.30017 10.15L2.56396 7.91552C2.75101 6.33117 2.88474 5.20906 3.09028 4.3563C3.29144 3.52177 3.54219 3.03501 3.90689 2.6779C3.98161 2.60473 4.05981 2.53522 4.14122 2.4696ZM7.25028 7C7.25028 8.24264 8.25764 9.25 9.50028 9.25C10.7429 9.25 11.7503 8.24264 11.7503 7V5C11.7503 4.58579 12.0861 4.25 12.5003 4.25C12.9145 4.25 13.2503 4.58579 13.2503 5V7C13.2503 9.07107 11.5713 10.75 9.50028 10.75C7.42921 10.75 5.75028 9.07107 5.75028 7V5C5.75028 4.58579 6.08606 4.25 6.50028 4.25C6.91449 4.25 7.25028 4.58579 7.25028 5V7Z" fill="#1C1C1D"/>
</svg>
