<svg width="81" height="80" viewBox="0 0 81 80" fill="none" xmlns="http://www.w3.org/2000/svg">
<path d="M71.0185 66.2143C70.8407 55.3419 59.7244 52.1297 51.6075 49.7843C50.6604 49.5107 49.7496 49.2474 48.8962 48.9846V44.4994C50.5556 43.4592 52.0096 42.1206 53.1826 40.5592H58.127C60.5466 40.5592 62.5152 38.5906 62.5152 36.1711V30.8592C62.8084 30.1754 62.9714 29.4229 62.9714 28.6328V26.9807C62.9714 26.1914 62.8084 25.4393 62.5152 24.756V22.0157C62.5152 9.87629 52.6392 0 40.4999 0C28.363 0 18.489 9.87629 18.489 22.0159V24.6778C18.489 24.6987 18.4914 24.7188 18.4922 24.7396C18.1944 25.4274 18.0284 26.1849 18.0284 26.9809V28.6329C18.0284 31.7559 20.5672 34.2967 23.6877 34.2967H24.9789C25.8733 38.5855 28.5063 42.2433 32.1036 44.4986V48.9846C31.25 49.2474 30.3394 49.5105 29.3924 49.7843C21.2755 52.1297 10.1592 55.3421 9.98136 66.2143C9.9812 66.2229 9.9812 66.2314 9.9812 66.2399V78.4375C9.9812 79.3005 10.6809 80 11.5437 80H16.1762C17.039 80 17.7387 79.3005 17.7387 78.4375C17.7387 77.5745 17.039 76.875 16.1762 76.875H13.1061V66.2529C13.1718 62.4596 14.9143 59.616 18.5895 57.3043C21.0147 55.7788 23.9795 54.6919 26.9021 53.7827L30.6772 61.1381C31.098 61.9579 32.1754 62.2365 32.941 61.7199L34.6243 60.5845L36.0694 66.0162L33.5933 76.8748H16.0159C15.1531 76.8748 14.4534 77.5744 14.4534 78.4373C14.4534 79.3003 15.1531 79.9998 16.0159 79.9998H69.4561C70.3189 79.9998 71.0186 79.3003 71.0186 78.4373V66.2398C71.0186 66.2314 71.0186 66.2229 71.0185 66.2143ZM50.74 52.7863C50.8429 52.816 50.9476 52.8465 51.0514 52.8765L48.3503 58.1443L43.2954 54.7357L47.5784 51.8468C48.5734 52.1599 49.6315 52.466 50.74 52.7863ZM40.501 56.6205L43.6341 58.7334L42.1199 64.4249H38.8799L37.3661 58.7351L40.501 56.6205ZM40.5007 52.8513L35.2285 49.2961V46.0067C36.8786 46.5903 38.6523 46.9105 40.4998 46.9105C42.3471 46.9105 44.121 46.5914 45.771 46.0078V49.2961L40.5007 52.8513ZM53.2295 22.3016C53.2081 22.2881 53.1868 22.2745 53.1654 22.2609C49.9593 20.2199 47.1903 18.4573 42.8515 19.6987C42.8112 19.7102 42.7712 19.7234 42.732 19.738C41.8121 20.0835 40.9757 20.4055 40.1666 20.717C35.2255 22.619 32.5277 23.6577 27.7702 23.524V22.2727C27.7702 15.2533 33.4807 9.54269 40.4998 9.54269C47.5188 9.54269 53.2293 15.2533 53.2293 22.2727L53.2295 22.3016ZM59.3901 36.1711C59.3901 36.8676 58.8236 37.4342 58.127 37.4342H55.0133C55.4529 36.4375 55.7936 35.3876 56.0211 34.2965H57.3123C58.0459 34.2965 58.7464 34.1547 59.3903 33.8992L59.3901 36.1711ZM59.8464 28.6328C59.8464 30.0326 58.7097 31.1715 57.3122 31.1715H56.3531C56.3534 31.1328 56.3547 24.4463 56.3547 24.4463H57.3123C58.7097 24.4463 59.8465 25.5832 59.8465 26.9807L59.8464 28.6328ZM23.6877 31.1717C22.2903 31.1717 21.1534 30.0328 21.1534 28.6329V26.9809C21.1534 25.5834 22.2902 24.4465 23.6877 24.4465H24.6453C24.6453 24.4465 24.6466 31.1329 24.6469 31.1717H23.6877ZM24.6745 21.3213H23.6875C22.957 21.3213 22.2594 21.462 21.6178 21.7151C21.7792 11.4369 30.1867 3.12501 40.4999 3.12501C50.816 3.12501 59.2259 11.4379 59.3862 21.7168C58.7436 21.4626 58.0442 21.3213 57.3122 21.3213H56.3251C55.8314 13.0201 48.9226 6.41768 40.4999 6.41768C32.0771 6.41768 25.1683 13.0202 24.6745 21.3213ZM27.8642 32.5756L27.8636 32.5709C27.8044 32.0736 27.7703 31.5686 27.7703 31.0556V26.6489C33.1161 26.7792 36.3051 25.5523 41.2893 23.6335C42.0743 23.3313 42.8857 23.019 43.7696 22.6867C46.7212 21.8627 48.4195 22.9442 51.4873 24.8971C52.0196 25.236 52.6036 25.6074 53.2295 25.9889V31.0556C53.2295 33.3792 52.6007 35.5573 51.509 37.4344H40.4999C39.6371 37.4344 38.9374 38.1339 38.9374 38.9969C38.9374 39.8598 39.6371 40.5594 40.4999 40.5594H48.9568C46.7065 42.5642 43.7437 43.7856 40.4999 43.7856C33.9954 43.7855 28.6181 38.8805 27.8642 32.5756ZM32.6533 58.1444L29.9492 52.8761C30.0527 52.8463 30.1571 52.816 30.2599 52.7863C31.3683 52.466 32.4264 52.1597 33.4218 51.8466L37.7065 54.736L32.6533 58.1444ZM36.7986 76.875L38.9251 67.5499H42.0752L44.2049 76.875H36.7986ZM67.8936 76.875H47.4104L44.9304 66.016L46.3762 60.5823L48.0635 61.7201C48.8295 62.2365 49.9068 61.9579 50.3274 61.1376L54.0984 53.783C57.0208 54.6922 59.9855 55.779 62.4105 57.3043C66.0855 59.6159 67.8281 62.4596 67.8939 66.2529L67.8936 76.875Z" fill="black"/>
<path d="M61.7234 69.062H53.8489C52.9861 69.062 52.2864 69.7615 52.2864 70.6245C52.2864 71.4875 52.9861 72.187 53.8489 72.187H61.7234C62.5862 72.187 63.2859 71.4875 63.2859 70.6245C63.2859 69.7615 62.5864 69.062 61.7234 69.062Z" fill="black"/>
<path d="M23.1917 76.875C22.3288 76.875 21.6292 77.5745 21.6292 78.4375C21.6292 79.3005 22.3288 80 23.1917 80H23.196C24.0588 80 24.7562 79.3005 24.7562 78.4375C24.7562 77.5745 24.0545 76.875 23.1917 76.875Z" fill="black"/>
</svg>
