<svg width="33" height="33" viewBox="0 0 33 33" fill="none" xmlns="http://www.w3.org/2000/svg">
<g clip-path="url(#clip0)">
<path d="M1.48047 0.249512V22.2824L16.2393 31.3626L30.9323 22.1822V0.249512H1.48047ZM28.7305 20.7495L16.2393 28.7495L3.73047 21.2495V2.24951H28.7305V20.7495Z" fill="white"/>
<path d="M12.2872 12.6008C14.198 12.6008 15.7463 11.0318 15.7463 9.09556C15.7463 7.15934 14.198 5.59033 12.2872 5.59033C10.3765 5.59033 8.82812 7.15934 8.82812 9.09556C8.82812 11.0318 10.3765 12.6008 12.2872 12.6008ZM12.2872 7.76023C13.012 7.76023 13.605 8.36113 13.605 9.09556C13.605 9.82999 13.012 10.4309 12.2872 10.4309C11.5625 10.4309 10.9695 9.82999 10.9695 9.09556C10.9695 8.36113 11.5625 7.76023 12.2872 7.76023Z" fill="white"/>
<path d="M20.1271 13.6362C18.2163 13.6362 16.668 15.2052 16.668 17.1415C16.668 19.0777 18.2163 20.6467 20.1271 20.6467C22.0378 20.6467 23.5862 19.0777 23.5862 17.1415C23.5862 15.2052 22.0378 13.6362 20.1271 13.6362ZM20.1271 18.4768C19.4023 18.4768 18.8093 17.8759 18.8093 17.1415C18.8093 16.407 19.4023 15.8061 20.1271 15.8061C20.8518 15.8061 21.4448 16.407 21.4448 17.1415C21.4448 17.8759 20.8518 18.4768 20.1271 18.4768Z" fill="white"/>
<path d="M21.8627 5.87489L9.02734 18.8813L10.5415 20.4157L23.3768 7.40923L21.8627 5.87489Z" fill="white"/>
</g>
<defs>
<clipPath id="clip0">
<rect width="32" height="32" fill="white" transform="translate(0.230469 0.249512)"/>
</clipPath>
</defs>
</svg>
