<svg width="81" height="80" viewBox="0 0 81 80" fill="none" xmlns="http://www.w3.org/2000/svg">
<path d="M69.25 10C67.1477 10.0025 65.1166 10.7618 63.5282 12.139C61.9398 13.5162 60.9003 15.4193 60.6 17.5H45.5V20H60.5V68.75C60.5 69.0815 60.6317 69.3995 60.8661 69.6339C61.1005 69.8683 61.4185 70 61.75 70C62.0815 70 62.3995 69.8683 62.6339 69.6339C62.8683 69.3995 63 69.0815 63 68.75C63 67.0924 63.6585 65.5027 64.8306 64.3306C66.0027 63.1585 67.5924 62.5 69.25 62.5C70.9076 62.5 72.4973 63.1585 73.6694 64.3306C74.8415 65.5027 75.5 67.0924 75.5 68.75V69.0125C75.4967 70.5995 74.8648 72.1205 73.7427 73.2427C72.6205 74.3648 71.0995 74.9967 69.5125 75H5.5V49.1463C8.34144 54.6585 12.6415 59.285 17.9316 62.5213C23.2216 65.7577 29.2985 67.4799 35.5 67.5C35.8315 67.5 36.1495 67.3683 36.3839 67.1339C36.6183 66.8995 36.75 66.5815 36.75 66.25C36.75 65.9185 36.6183 65.6005 36.3839 65.3661C36.1495 65.1317 35.8315 65 35.5 65C30.809 64.9909 26.1811 63.9191 21.9637 61.865L22.74 58.97C23.5129 58.922 24.2507 58.6299 24.8469 58.1357C25.4431 57.6414 25.867 56.9706 26.0575 56.22L30.1725 40.875C31.1069 41.0478 32.0513 41.161 33 41.2138V42.5C33 42.8315 33.1317 43.1495 33.3661 43.3839C33.6005 43.6183 33.9185 43.75 34.25 43.75C34.5815 43.75 34.8995 43.6183 35.1339 43.3839C35.3683 43.1495 35.5 42.8315 35.5 42.5V41.2138C36.4487 41.1618 37.3931 41.0495 38.3275 40.8775L42.4413 56.2162C42.6311 56.9675 43.055 57.6388 43.6516 58.1332C44.2482 58.6275 44.9866 58.9193 45.76 58.9663L46.7925 62.8213C46.8633 63.0875 47.0201 63.3229 47.2384 63.4908C47.4568 63.6588 47.7245 63.7499 48 63.75C48.1093 63.7499 48.2181 63.7356 48.3237 63.7075C48.4823 63.665 48.631 63.5917 48.7612 63.4917C48.8915 63.3918 49.0007 63.2671 49.0828 63.1249C49.1649 62.9827 49.2181 62.8258 49.2395 62.663C49.2609 62.5002 49.25 62.3348 49.2075 62.1763L48.1762 58.33C48.8105 57.8915 49.2946 57.2686 49.5629 56.5457C49.8312 55.8228 49.8708 55.0349 49.6763 54.2887L41.4737 23.6788C42.7759 21.7772 43.273 19.4376 42.8563 17.1709C42.4397 14.9041 41.1433 12.8943 39.25 11.58V7.5C39.25 6.17392 38.7232 4.90215 37.7855 3.96447C36.8479 3.02678 35.5761 2.5 34.25 2.5C32.9239 2.5 31.6521 3.02678 30.7145 3.96447C29.7768 4.90215 29.25 6.17392 29.25 7.5V11.58C27.3567 12.8943 26.0603 14.9041 25.6437 17.1709C25.227 19.4376 25.7241 21.7772 27.0263 23.6788L18.8162 54.2938C18.6224 55.0397 18.6631 55.8273 18.9329 56.5493C19.2026 57.2713 19.6883 57.8926 20.3237 58.3287L19.6987 60.6537C12.8163 56.627 7.73593 50.119 5.5 42.465V20H23V17.5H3V77.5H69.5125C71.7634 77.4967 73.921 76.6007 75.5122 75.0086C77.1033 73.4166 77.998 71.2584 78 69.0075V18.75C77.9974 16.4302 77.0746 14.2061 75.4343 12.5657C73.7939 10.9254 71.5698 10.0026 69.25 10ZM35.5 38.675V37.5C35.5 37.1685 35.3683 36.8505 35.1339 36.6161C34.8995 36.3817 34.5815 36.25 34.25 36.25C33.9185 36.25 33.6005 36.3817 33.3661 36.6161C33.1317 36.8505 33 37.1685 33 37.5V38.675C32.2731 38.6314 31.549 38.548 30.8312 38.425L33.7663 27.4775C33.9275 27.4862 34.0863 27.5025 34.25 27.5025C34.4137 27.5025 34.5725 27.4862 34.7337 27.4775L37.6688 38.425C36.951 38.548 36.2269 38.6314 35.5 38.675ZM47.2662 54.9313C47.3494 55.2502 47.3044 55.589 47.1409 55.8752C46.9773 56.1614 46.7083 56.3722 46.3913 56.4625H46.3838C46.065 56.5469 45.7258 56.502 45.44 56.3375C45.2986 56.2554 45.175 56.1458 45.0765 56.0153C44.978 55.8848 44.9065 55.736 44.8662 55.5775L37.1888 26.9812C37.997 26.6917 38.7582 26.2844 39.4475 25.7725L47.2662 54.9313ZM31.75 7.5C31.75 6.83696 32.0134 6.20107 32.4822 5.73223C32.9511 5.26339 33.587 5 34.25 5C34.913 5 35.5489 5.26339 36.0178 5.73223C36.4866 6.20107 36.75 6.83696 36.75 7.5V10.375C35.1196 9.88332 33.3804 9.88332 31.75 10.375V7.5ZM34.25 12.5C35.4861 12.5 36.6945 12.8666 37.7223 13.5533C38.7501 14.2401 39.5512 15.2162 40.0242 16.3582C40.4973 17.5003 40.6211 18.7569 40.3799 19.9693C40.1388 21.1817 39.5435 22.2953 38.6694 23.1694C37.7953 24.0435 36.6817 24.6388 35.4693 24.8799C34.2569 25.1211 33.0003 24.9973 31.8582 24.5242C30.7162 24.0512 29.7401 23.2501 29.0533 22.2223C28.3666 21.1945 28 19.9861 28 18.75C28.002 17.093 28.6611 15.5044 29.8328 14.3328C31.0044 13.1611 32.593 12.502 34.25 12.5ZM21.2325 54.9363L29.0525 25.7725C29.7418 26.2844 30.503 26.6917 31.3113 26.9812L23.6413 55.5837C23.5555 55.9001 23.3489 56.1701 23.066 56.3357C22.7831 56.5012 22.4465 56.549 22.1287 56.4688H22.1175C21.7984 56.3806 21.5267 56.1705 21.3611 55.8838C21.1955 55.597 21.1493 55.2567 21.2325 54.9363ZM75.5 62.6312C74.6861 61.7984 73.7139 61.1366 72.6406 60.6847C71.5673 60.2329 70.4145 60.0001 69.25 60.0001C68.0855 60.0001 66.9327 60.2329 65.8594 60.6847C64.7861 61.1366 63.8139 61.7984 63 62.6312V18.75C63 17.0924 63.6585 15.5027 64.8306 14.3306C66.0027 13.1585 67.5924 12.5 69.25 12.5C70.9076 12.5 72.4973 13.1585 73.6694 14.3306C74.8415 15.5027 75.5 17.0924 75.5 18.75V62.6312Z" fill="black"/>
<path d="M34.25 22.5C34.9917 22.5 35.7167 22.2801 36.3334 21.868C36.9501 21.456 37.4307 20.8703 37.7145 20.1851C37.9984 19.4998 38.0726 18.7458 37.9279 18.0184C37.7832 17.291 37.4261 16.6228 36.9016 16.0984C36.3772 15.5739 35.709 15.2168 34.9816 15.0721C34.2542 14.9274 33.5002 15.0016 32.8149 15.2855C32.1297 15.5693 31.544 16.0499 31.132 16.6666C30.7199 17.2833 30.5 18.0083 30.5 18.75C30.5 19.7446 30.8951 20.6984 31.5983 21.4017C32.3016 22.1049 33.2554 22.5 34.25 22.5ZM34.25 17.5C34.4972 17.5 34.7389 17.5733 34.9445 17.7107C35.15 17.848 35.3102 18.0432 35.4048 18.2716C35.4995 18.5001 35.5242 18.7514 35.476 18.9939C35.4277 19.2363 35.3087 19.4591 35.1339 19.6339C34.9591 19.8087 34.7363 19.9278 34.4939 19.976C34.2514 20.0242 34.0001 19.9995 33.7716 19.9049C33.5432 19.8102 33.348 19.65 33.2107 19.4445C33.0733 19.2389 33 18.9972 33 18.75C33 18.4185 33.1317 18.1005 33.3661 17.8661C33.6005 17.6317 33.9185 17.5 34.25 17.5Z" fill="black"/>
</svg>
