<svg width="53" height="53" viewBox="0 0 53 53" fill="none" xmlns="http://www.w3.org/2000/svg">
<rect width="52.9996" height="52.9996" fill="#C26241"/>
<g clip-path="url(#clip0)">
<path d="M27.1385 29.2893C26.93 29.4197 26.6953 29.4718 26.4867 29.4718C26.2782 29.4718 26.0435 29.4197 25.8349 29.2893L15.4582 22.9537V31.3751C15.4582 33.1741 16.9182 34.6341 18.7172 34.6341H34.2823C36.0813 34.6341 37.5414 33.1741 37.5414 31.3751V22.9537L27.1385 29.2893Z" fill="white"/>
<path d="M34.2824 18.3652H18.7172C17.179 18.3652 15.8754 19.4603 15.5625 20.9203L26.5128 27.5948L37.4371 20.9203C37.1242 19.4603 35.8206 18.3652 34.2824 18.3652Z" fill="white"/>
</g>
<defs>
<clipPath id="clip0">
<rect width="22.0832" height="22.0832" fill="white" transform="translate(15.4582 15.4581)"/>
</clipPath>
</defs>
</svg>
