<svg width="40" height="40" viewBox="0 0 40 40" fill="none" xmlns="http://www.w3.org/2000/svg">
<path d="M38.4794 6.57537C38.2142 5.12138 37.55 3.76942 36.5581 2.6648C36.5562 2.66267 36.5544 2.66043 36.5524 2.6583C36.0444 2.08468 35.2026 1.29605 34.0773 0.796305L34.0517 0.784948C32.9656 0.264044 31.8001 0 30.5878 0C28.7948 0 27.0989 0.578761 25.6833 1.67386C25.682 1.67493 25.6756 1.67998 25.6738 1.68124C24.4569 2.63151 23.6538 3.98939 23.5544 4.16238C23.5499 4.16995 23.5456 4.17762 23.5414 4.18529C22.9029 5.35582 22.5655 6.68264 22.5655 8.02237C22.5655 8.30058 22.58 8.5822 22.609 8.85925C22.6359 9.11815 22.7908 9.34627 23.0213 9.46694C23.1673 9.54334 23.3199 9.60692 23.4767 9.6572C24.1017 11.5702 25.4667 13.1001 27.202 13.9604C26.4581 14.3404 25.79 14.8428 25.2121 15.4571C24.9183 15.7695 24.9333 16.261 25.2458 16.5549C25.5582 16.8486 26.0497 16.8336 26.3435 16.5212C26.6213 16.2259 26.9252 15.9636 27.253 15.736C27.7232 17.068 28.9349 18.0438 30.313 18.0438H30.4289C31.8094 18.0438 33.02 16.998 33.4623 15.5829C35.1022 16.611 36.1514 18.4426 36.1514 20.4018V28.4687L29.0878 33.0521C28.728 33.2855 28.6256 33.7664 28.8591 34.1262C29.0079 34.3554 29.257 34.4801 29.5113 34.4801C29.6562 34.4801 29.8027 34.4396 29.9333 34.3549L37.3507 29.5419C37.5713 29.3987 37.7046 29.1535 37.7046 28.8905V20.4018C37.7046 17.6516 36.1693 15.1865 33.7428 13.9565C36.0406 12.8096 37.6656 10.495 37.8248 7.79909C38.044 7.60038 38.2345 7.36692 38.3869 7.10433C38.4798 6.94474 38.5126 6.75709 38.4794 6.57537ZM30.429 16.4907H30.3131C29.3837 16.4907 28.5985 15.5898 28.5985 14.5235C28.5985 14.5102 28.5982 14.497 28.5975 14.4838C29.1997 14.6421 29.8295 14.7259 30.4753 14.7259C31.0273 14.7259 31.566 14.6643 32.0841 14.5477C32.0233 15.5977 31.276 16.4907 30.429 16.4907ZM30.4752 13.1727C28.1335 13.1727 26.0572 11.7777 25.1476 9.68672C26.2259 9.38171 27.0507 8.46687 27.2247 7.34012C27.688 7.39963 28.1576 7.42963 28.6287 7.42963C30.2083 7.42963 31.73 7.0985 33.0929 6.46441C33.4441 7.67057 34.5597 8.55453 35.8778 8.55453C35.9739 8.55453 36.0694 8.54968 36.164 8.54016C35.6164 11.1787 33.2666 13.1727 30.4752 13.1727ZM35.8778 7.00143C35.1352 7.00143 34.5311 6.39753 34.5311 5.6551V5.22292C34.5311 4.94034 34.3777 4.68008 34.1303 4.5433C33.8829 4.40642 33.5808 4.41487 33.3416 4.56524C31.975 5.42309 30.3454 5.87653 28.6286 5.87653C27.9572 5.87653 27.2903 5.80576 26.6464 5.66616C26.417 5.61636 26.1772 5.67315 25.9944 5.82061C25.8116 5.96807 25.7053 6.19027 25.7053 6.4251V6.8962C25.7053 7.63853 25.1013 8.24253 24.3588 8.24253C24.308 8.24253 24.2577 8.23972 24.208 8.23418C24.1964 8.23244 24.1849 8.23098 24.1733 8.22981C24.156 8.22748 24.1388 8.22467 24.1216 8.22166C24.1196 8.15507 24.1185 8.08867 24.1185 8.02246C24.1185 6.94493 24.3888 5.87827 24.9004 4.93713C24.9025 4.93335 24.9046 4.92966 24.9062 4.92684C24.9128 4.9149 25.6143 3.69884 26.6285 2.90642C26.6305 2.90477 26.6331 2.90283 26.6336 2.90244C27.7746 2.01974 29.1419 1.5532 30.5878 1.5532C31.5658 1.5532 32.5053 1.76589 33.38 2.18535C33.3952 2.19263 33.4176 2.20282 33.4469 2.21573C34.3106 2.59937 34.9737 3.22027 35.3804 3.67758C35.3849 3.68283 35.3895 3.68797 35.3941 3.69321C36.127 4.50641 36.6392 5.48609 36.8866 6.54275C36.6325 6.83048 36.2652 7.00143 35.8778 7.00143ZM23.8609 26.8711C25.6207 25.8356 26.8044 23.9214 26.8044 21.7361C26.8044 20.7528 26.5647 19.8241 26.1408 19.0059C26.1255 18.9715 26.1081 18.9388 26.0887 18.9078C25.0805 17.0484 23.1108 15.7828 20.8511 15.7828C18.5909 15.7828 16.6209 17.0488 15.613 18.909C15.5941 18.9393 15.5772 18.9712 15.5623 19.0046C15.1378 19.8232 14.8979 20.7522 14.8979 21.7361C14.8979 23.921 16.0811 25.8348 17.8404 26.8704C15.6627 27.9962 14.2832 30.2309 14.2832 32.7039V35.5364C14.2832 35.8019 14.4189 36.049 14.6428 36.1916L20.4342 39.8785C20.5615 39.9594 20.7063 39.9999 20.8512 39.9999C20.9953 39.9999 21.1394 39.9599 21.266 39.8798L27.0711 36.2122C27.2975 36.0692 27.4342 35.8198 27.4329 35.552L27.4192 32.7003C27.4074 30.2214 26.0294 27.9941 23.8609 26.8711ZM20.8511 17.336C22.2029 17.336 23.414 17.9486 24.2219 18.9108C23.1754 19.2106 22.0278 19.367 20.8513 19.367C19.6745 19.367 18.5268 19.2106 17.4804 18.9108C18.2883 17.9486 19.4995 17.336 20.8511 17.336ZM16.451 21.7361C16.451 21.2316 16.5364 20.7466 16.6934 20.2949C17.9749 20.7053 19.397 20.9202 20.8513 20.9202C22.3053 20.9202 23.7272 20.7053 25.0089 20.2949C25.1659 20.7466 25.2513 21.2316 25.2513 21.7361C25.2513 24.1623 23.2774 26.1362 20.8511 26.1362C18.4249 26.1362 16.451 24.1623 16.451 21.7361ZM22.2296 27.5284C22.1325 28.2631 21.4881 28.7597 20.9051 28.7597H20.8106C20.1931 28.7597 19.5073 28.2374 19.4185 27.5152C19.8775 27.629 20.3574 27.6894 20.851 27.6894C21.3253 27.6894 21.787 27.6336 22.2296 27.5284ZM20.8528 38.3038L15.8363 35.1102V32.704C15.8363 30.9964 16.6991 29.4372 18.0958 28.5183C18.581 29.6256 19.725 30.3129 20.8106 30.3129H20.9051C22.0771 30.3129 23.1131 29.5502 23.5606 28.4905C24.9774 29.404 25.8577 30.9754 25.8659 32.7077L25.8776 35.1292L20.8528 38.3038ZM15.2746 17.4581C15.501 17.0938 15.3891 16.615 15.0249 16.3886C14.7884 16.2416 14.5432 16.1083 14.2916 15.9897C15.2513 15.4991 16.1002 14.7963 16.7741 13.9173C17.0516 14.0136 17.3496 14.0661 17.6594 14.0661C19.1517 14.0661 20.3659 12.8519 20.3659 11.3596V9.42966C20.3659 6.97638 19.4287 4.6529 17.7271 2.8874C16.0303 1.12704 13.7523 0.104453 11.3128 0.00796014C11.3127 0.00796014 11.3124 0.00796014 11.3122 0.00796014C11.1002 -0.000194149 10.9028 -0.00213565 10.7088 0.00262102C8.28013 0.0612543 5.98926 1.04423 4.25813 2.77042C2.48331 4.5401 1.50586 6.90513 1.50586 9.42976V11.3597C1.50586 12.852 2.71998 14.0662 4.2124 14.0662C4.52227 14.0662 4.82009 14.0138 5.09753 13.9175C5.83987 14.8858 6.79469 15.6401 7.87601 16.1327C5.47972 17.3929 3.99758 19.8324 3.99758 22.5338V28.8907C3.99758 29.1537 4.13076 29.3989 4.35151 29.5421L11.3967 34.1135C11.5273 34.1982 11.6738 34.2387 11.8187 34.2387C12.0729 34.2387 12.3222 34.1139 12.4709 33.8848C12.7043 33.5249 12.6019 33.044 12.2421 32.8106L5.55078 28.4689V22.5338C5.55078 20.7369 6.38746 19.0872 7.78913 18.0225C8.26984 19.4175 9.50425 20.4656 10.8691 20.4656H10.985C12.4674 20.4656 13.6505 19.1238 14.0672 17.6248C14.1135 17.6518 14.1594 17.6795 14.2049 17.7077C14.5693 17.9343 15.0482 17.8224 15.2746 17.4581ZM6.13313 6.60721C5.63106 7.45991 5.36565 8.4359 5.36565 9.42976V11.3597C5.36565 11.7276 5.19247 12.0558 4.92328 12.2672C4.90018 12.2822 4.87814 12.2983 4.85718 12.3154C4.67303 12.4401 4.45101 12.513 4.21231 12.513C3.57637 12.513 3.05906 11.9956 3.05906 11.3597V9.42966C3.05906 5.11827 6.43571 1.6595 10.7459 1.55524C10.9071 1.55126 11.0726 1.553 11.252 1.5599C15.4915 1.72793 18.8126 5.18467 18.8126 9.42966V11.3596C18.8126 11.9955 18.2952 12.5129 17.6592 12.5129C17.4205 12.5129 17.1984 12.44 17.0142 12.3152C16.9933 12.2982 16.9713 12.2822 16.9483 12.2672C16.6792 12.0558 16.5059 11.7275 16.5059 11.3596V9.42966C16.5059 6.68846 14.4638 4.31964 11.7558 3.91959C11.5429 3.88795 11.3265 3.94639 11.1583 4.08054C10.9901 4.2147 10.8849 4.41254 10.8681 4.62707C10.8254 5.16992 10.727 5.70519 10.5747 6.22464H6.80227C6.52725 6.22464 6.27262 6.37015 6.13313 6.60721ZM10.985 18.9124H10.8691C9.99118 18.9124 9.12944 17.8466 9.12944 16.7607C9.12944 16.6937 9.1208 16.6278 9.1043 16.5646C9.69413 16.7145 10.3083 16.7927 10.9359 16.7927C11.53 16.7927 12.1123 16.7226 12.6731 16.588C12.6203 17.7172 11.7656 18.9124 10.985 18.9124ZM10.9359 15.2395C9.12585 15.2395 7.45529 14.4154 6.35776 13.0077C6.70936 12.551 6.91876 11.9792 6.91876 11.3596V9.42966C6.91876 8.8576 7.04049 8.29408 7.27327 7.77783H11.1352C11.4603 7.77783 11.7509 7.57543 11.8637 7.27042C12.0578 6.74525 12.2043 6.20347 12.3018 5.6517C13.8566 6.21765 14.9528 7.72357 14.9528 9.42966V11.3596C14.9528 11.9792 15.1622 12.551 15.5139 13.0077C14.4164 14.4155 12.746 15.2395 10.9359 15.2395Z" fill="black"/>
</svg>
