<svg width="20" height="20" viewBox="0 0 20 20" fill="none" xmlns="http://www.w3.org/2000/svg">
<path d="M19.2854 0H0.714287C0.319791 0 0 0.319791 0 0.714287V4.28564C4.1852e-05 4.48804 0.0859639 4.68093 0.236422 4.81636L7.14275 11.032V19.2854C7.14258 19.6799 7.4622 19.9998 7.8567 20C7.96765 20 8.07709 19.9743 8.17632 19.9247L12.462 17.7818C12.7041 17.6609 12.8571 17.4133 12.857 17.1426V11.032L19.7633 4.81779C19.9141 4.68206 20.0001 4.48858 19.9997 4.28564V0.714287C19.9997 0.319791 19.6799 0 19.2854 0ZM18.5711 3.96777L11.6648 10.182C11.514 10.3177 11.4281 10.5112 11.4284 10.7141V16.7011L8.57128 18.1297V10.7141C8.57124 10.5117 8.48532 10.3188 8.33486 10.1834L1.42853 3.96777V1.42853H18.5711V3.96777Z" fill="black"/>
</svg>
