<svg width="30" height="32" viewBox="0 0 30 32" fill="none" xmlns="http://www.w3.org/2000/svg">
<path d="M29.7428 5.80116H22.5961C23.3803 4.6495 23.4559 3.09459 22.6645 1.84485C21.6025 0.167577 19.373 -0.333146 17.6958 0.728907C17.2714 0.997735 16.5629 1.62627 15.3168 3.9701C15.2054 4.1802 15.0988 4.38606 14.9983 4.58405C14.8978 4.38606 14.7913 4.1802 14.6799 3.9701C13.4337 1.62621 12.7253 0.997735 12.3009 0.728907C10.6236 -0.333146 8.39419 0.167637 7.33214 1.84485C6.81749 2.65745 6.65032 3.62196 6.86108 4.56049C6.9622 5.01157 7.14505 5.43061 7.39813 5.80116H0.253906V14.5935H1.31596V31.1714H28.6807V14.5935H29.7428V5.80116ZM18.6671 2.26389C18.9565 2.08043 19.2846 1.98659 19.6189 1.98659C19.7497 1.98659 19.8823 2.00112 20.0131 2.03018C20.4781 2.13493 20.8747 2.41405 21.1302 2.81674C21.6564 3.64811 21.4081 4.75309 20.5768 5.27931C20.0767 5.59657 18.2432 5.77337 16.4177 5.80062C17.2229 4.16204 18.1669 2.58055 18.6671 2.26389ZM8.86652 2.81662C9.12202 2.41399 9.51867 2.13487 9.98367 2.03006C10.1144 2.001 10.247 1.98647 10.3778 1.98647C10.712 1.98647 11.0402 2.08031 11.3297 2.26377C11.8298 2.58043 12.7738 4.16197 13.5791 5.80049C12.6666 5.78657 11.7518 5.73571 11.0027 5.64852C10.2537 5.56133 9.67003 5.43782 9.41998 5.27919C9.01734 5.02428 8.73755 4.6277 8.63341 4.16264C8.5286 3.69764 8.61155 3.21932 8.86652 2.81662ZM11.323 29.3549H3.13243V14.5935H11.323V29.3549ZM11.323 12.7771H2.07043V7.61763H11.323V12.7771H11.323ZM16.8572 29.3549H13.1395V7.61763H16.8572V29.3549ZM26.8643 29.3549H18.6737V14.5935H26.8643V29.3549ZM27.9263 12.7771H18.6737V7.61763H27.9263V12.7771Z" fill="white"/>
</svg>
