<svg width="38" height="38" viewBox="0 0 38 38" fill="none" xmlns="http://www.w3.org/2000/svg">
<path d="M19.003 15.4665C17.0574 15.4665 15.4697 17.0542 15.4697 18.9998C15.4697 20.9454 17.0574 22.5332 19.003 22.5332C20.9486 22.5332 22.5364 20.9454 22.5364 18.9998C22.5364 17.0542 20.9486 15.4665 19.003 15.4665ZM29.6004 18.9998C29.6004 17.5366 29.6137 16.0867 29.5315 14.6262C29.4493 12.9298 29.0623 11.4242 27.8218 10.1837C26.5786 8.94052 25.0757 8.55617 23.3793 8.474C21.9161 8.39183 20.4662 8.40509 19.0057 8.40509C17.5425 8.40509 16.0926 8.39183 14.6321 8.474C12.9356 8.55617 11.4301 8.94317 10.1895 10.1837C8.94638 11.4268 8.56203 12.9298 8.47986 14.6262C8.39769 16.0894 8.41094 17.5393 8.41094 18.9998C8.41094 20.4603 8.39769 21.9129 8.47986 23.3734C8.56203 25.0698 8.94903 26.5754 10.1895 27.8159C11.4327 29.0591 12.9356 29.4434 14.6321 29.5256C16.0952 29.6078 17.5452 29.5945 19.0057 29.5945C20.4688 29.5945 21.9188 29.6078 23.3793 29.5256C25.0757 29.4434 26.5813 29.0565 27.8218 27.8159C29.065 26.5728 29.4493 25.0698 29.5315 23.3734C29.6163 21.9129 29.6004 20.463 29.6004 18.9998ZM19.003 24.4363C15.9945 24.4363 13.5665 22.0083 13.5665 18.9998C13.5665 15.9913 15.9945 13.5633 19.003 13.5633C22.0115 13.5633 24.4395 15.9913 24.4395 18.9998C24.4395 22.0083 22.0115 24.4363 19.003 24.4363ZM24.6622 14.6103C23.9598 14.6103 23.3925 14.0431 23.3925 13.3406C23.3925 12.6382 23.9598 12.071 24.6622 12.071C25.3646 12.071 25.9319 12.6382 25.9319 13.3406C25.9321 13.5074 25.8994 13.6726 25.8356 13.8268C25.7719 13.9809 25.6784 14.121 25.5605 14.2389C25.4425 14.3568 25.3025 14.4503 25.1483 14.5141C24.9942 14.5778 24.829 14.6105 24.6622 14.6103Z" fill="white"/>
</svg>
