<svg width="125" height="33" viewBox="0 0 125 33" fill="none" xmlns="http://www.w3.org/2000/svg">
<g clip-path="url(#clip0)">
<path d="M40.723 11.6838L43.6708 19.4128C43.7536 19.6426 43.9192 19.741 44.1511 19.741C44.3829 19.741 44.532 19.6426 44.6313 19.4128L47.7282 11.6838H49.6161L46.188 20.2333C45.8237 21.1359 45.1613 21.4805 44.1676 21.4805C43.2237 21.4805 42.4784 21.1851 42.1307 20.2333L38.8848 11.6838H40.723Z" fill="white"/>
<path d="M54.154 11.6838V21.3H52.4648V11.6838H54.154Z" fill="white"/>
<path d="M64.5541 11.6838V13.3576H61.7222V21.2835H60.0164V13.374H57.1846V11.6838H64.5541Z" fill="white"/>
<path d="M67.551 21.2999H65.6797L69.0912 12.7504C69.4555 11.8479 70.1179 11.5033 71.1281 11.5033C72.1384 11.5033 72.8008 11.8479 73.1486 12.7504L76.4276 21.2999H74.5231L71.5753 13.5709C71.4925 13.3412 71.3269 13.2427 71.095 13.2427C70.8632 13.2427 70.7141 13.3412 70.5982 13.5709L67.551 21.2999Z" fill="white"/>
<path d="M80.3025 11.6838V17.9688C80.3025 18.8877 80.7662 19.6262 82.2897 19.6262H86.049V21.3H82.1904C79.6235 21.3 78.6133 19.9051 78.6133 17.9852V11.6838H80.3025Z" fill="white"/>
<path d="M96.8299 11.6838V13.3576H92.8388C90.9675 13.3576 90.156 14.2766 90.156 16.4919C90.156 18.6908 90.9675 19.6097 92.8388 19.6097H94.4452C95.3892 19.6097 95.8032 19.0354 95.8032 18.2641C95.8032 17.4929 95.4057 17.0334 94.6108 17.0334H92.4579V15.5729H94.793C96.5153 15.5729 97.3599 16.6232 97.3599 18.297C97.3599 19.9708 96.5153 21.3 94.3458 21.3H92.8554C90.0235 21.3 88.4668 19.7246 88.4668 16.5083C88.4668 13.2756 90.0401 11.7002 92.8554 11.7002H96.8299V11.6838Z" fill="white"/>
<path d="M101.782 11.6838L104.498 15.8027L107.247 11.6838H109.268L105.359 17.1483V21.3H103.653V17.1483L99.7451 11.6838H101.782Z" fill="white"/>
<path d="M111.52 21.3H109.715L112.712 13.292C113.093 12.1926 113.706 11.5198 114.998 11.5198C116.438 11.5198 117.151 12.3567 117.151 13.6202V19.298C117.151 19.6262 117.349 19.8395 117.647 19.8395C117.912 19.8395 118.111 19.6754 118.194 19.4457L120.562 13.292C120.943 12.1926 121.556 11.5198 122.847 11.5198C124.288 11.5198 125 12.3567 125 13.6202V21.3164H123.295V13.7023C123.295 13.3577 123.096 13.1443 122.798 13.1443C122.549 13.1443 122.351 13.3084 122.268 13.5546L119.9 19.6918C119.519 20.7913 118.889 21.4641 117.598 21.4641C116.174 21.4641 115.461 20.6272 115.461 19.3636V13.7023C115.461 13.3577 115.246 13.1443 114.965 13.1443C114.7 13.1443 114.534 13.3084 114.435 13.5546L111.52 21.3Z" fill="white"/>
<path d="M29.1799 0L19.2601 26.0751C18.9123 26.994 18.1008 27.0925 17.7862 27.0925C17.4715 27.0925 16.66 26.994 16.3123 26.0751C16.097 25.5007 16.097 24.8772 16.3123 24.3028L25.5366 0H19.1607L12.7683 16.82L6.37586 0H0L10.6651 28.0442C11.7912 31.0144 14.6562 33.0328 17.8524 33C20.9824 32.9672 23.7315 31.08 24.841 28.1591L35.5558 0H29.1799Z" fill="white"/>
</g>
<defs>
<clipPath id="clip0">
<rect width="125" height="33" fill="white"/>
</clipPath>
</defs>
</svg>
