<svg width="73" height="80" viewBox="0 0 73 80" fill="none" xmlns="http://www.w3.org/2000/svg">
<path d="M48.8365 21.5317H10.5258C9.87575 21.5317 9.34888 22.0586 9.34888 22.7086C9.34888 23.3586 9.87575 23.8855 10.5258 23.8855H48.8367C49.4867 23.8855 50.0136 23.3586 50.0136 22.7086C50.0136 22.0586 49.4865 21.5317 48.8365 21.5317Z" fill="black"/>
<path d="M10.5258 15.7219H29.6811C30.3311 15.7219 30.8579 15.195 30.8579 14.545C30.8579 13.895 30.3311 13.3682 29.6811 13.3682H10.5258C9.87575 13.3682 9.34888 13.895 9.34888 14.545C9.34888 15.1952 9.87575 15.7219 10.5258 15.7219Z" fill="black"/>
<path d="M48.8365 28.7646H10.5258C9.87575 28.7646 9.34888 29.2915 9.34888 29.9415C9.34888 30.5915 9.87575 31.1184 10.5258 31.1184H48.8367C49.4867 31.1184 50.0136 30.5915 50.0136 29.9415C50.0134 29.2915 49.4865 28.7646 48.8365 28.7646Z" fill="black"/>
<path d="M19.2528 71.8231H6.9923C4.97995 71.8231 3.34261 70.1859 3.34261 68.1736V6.00328C3.34261 3.99094 4.97995 2.35359 6.9923 2.35359H42.3135C42.4276 2.35359 42.54 2.36406 42.651 2.37906V9.71875C42.651 13.0291 45.3442 15.722 48.6543 15.722H55.9939C56.009 15.8333 56.0193 15.9456 56.0193 16.0597V36.1005C56.0193 36.7505 56.5462 37.2773 57.1962 37.2773C57.8462 37.2773 58.3731 36.7505 58.3731 36.1005V16.0598C58.3731 14.7689 57.8703 13.5552 56.9575 12.6422L45.7309 1.41562C44.8181 0.502813 43.6045 0 42.3135 0H6.9923C3.68198 0 0.989014 2.69313 0.989014 6.00328V68.1736C0.989014 71.4837 3.68214 74.1767 6.9923 74.1767H19.2528C19.9028 74.1767 20.4296 73.6498 20.4296 72.9998C20.4296 72.3498 19.9028 71.8231 19.2528 71.8231ZM54.3551 13.3684H48.6545C46.6421 13.3684 45.0048 11.7311 45.0048 9.71875V4.01812L54.3551 13.3684Z" fill="black"/>
<path d="M71.6496 57.6141L61.6781 40.7828C60.9513 39.5556 59.3698 39.15 58.142 39.8774L55.7165 41.3144C53.8338 42.4297 53.0381 44.6867 53.6845 46.6869C52.8673 46.983 51.9713 46.9783 51.1463 46.6594C49.2313 46.0569 47.7754 44.8449 45.3709 45.453C41.288 46.4925 41.4121 46.4405 41.0427 46.5671C38.6521 45.206 37.2151 44.801 34.6773 45.7827L32.4151 46.6572C31.3677 47.0619 30.2137 46.966 29.2459 46.3925L28.6285 46.0286C28.9298 44.2236 28.1293 42.3188 26.4343 41.3147C26.4343 41.3147 26.4343 41.3147 26.4341 41.3146L24.0088 39.8777C22.7845 39.1525 21.1982 39.5585 20.4729 40.7828L10.501 57.6142C9.7743 58.8411 10.1787 60.4231 11.4062 61.1502L13.8315 62.5871C14.5654 63.0219 15.372 63.2286 16.1688 63.2286C17.0574 63.2286 17.9335 62.9711 18.6826 62.4861L19.1881 62.7844L18.1209 64.2708C16.8491 66.0424 17.2532 68.5058 19.0251 69.7777C19.8445 70.3658 20.8738 70.6344 21.9384 70.4672C22.1073 71.4546 22.6482 72.3786 23.5241 73.0077C24.3468 73.5983 25.3715 73.8672 26.4379 73.6992C26.6073 74.6858 27.1479 75.6091 28.0234 76.2377C29.1999 77.0822 30.6627 77.1799 31.8816 76.6592C32.1484 77.3521 32.612 77.9777 33.2587 78.4421C34.9474 79.6541 37.2737 79.338 38.5859 77.7677L41.4218 79.4477C43.2973 80.5591 45.7171 79.9414 46.8291 78.0638C47.1135 77.5838 47.2899 77.0607 47.3545 76.523L47.3609 76.5269C49.2335 77.636 51.6588 77.015 52.7682 75.1428C53.0895 74.6005 53.2656 74.0122 53.3084 73.4227C54.959 73.8377 56.7579 73.1444 57.6688 71.6069C57.9677 71.1025 58.141 70.5577 58.1981 70.0094C59.9671 70.7036 62.0348 70.0327 63.0338 68.3464C63.5712 67.4394 63.7232 66.3775 63.4618 65.3561C63.3123 64.7717 63.0373 64.2413 62.6598 63.7933L64.2229 62.88C65.5452 63.4228 67.0543 63.336 68.319 62.5869L70.744 61.15C71.9715 60.4235 72.377 58.8417 71.6496 57.6141ZM15.0312 60.5622L12.6059 59.1252C12.4981 59.0613 12.4623 58.9216 12.526 58.8138L22.4979 41.9821C22.5621 41.8738 22.7023 41.8386 22.8095 41.9024L25.2346 43.3391C26.3123 43.9777 26.6495 45.3599 26.0226 46.4178L18.1099 59.7741C17.4784 60.8403 16.0974 61.1936 15.0312 60.5622ZM20.3976 67.8656C19.6829 67.3525 19.5195 66.3585 20.0329 65.6435L21.6015 63.4585C22.1012 62.7624 23.097 62.5719 23.8237 63.0936C24.537 63.6057 24.7006 64.6024 24.1887 65.3157L22.6199 67.5006C22.1079 68.2142 21.1106 68.3774 20.3976 67.8656ZM24.8968 71.0958C24.1835 70.5836 24.0199 69.5866 24.532 68.8735L26.1006 66.6886C26.1006 66.6886 26.1006 66.6886 26.1006 66.6885C26.1006 66.6885 26.1006 66.6883 26.1007 66.6883L27.8318 64.2771C28.0799 63.9316 28.4476 63.7032 28.8673 63.6344C28.9545 63.62 29.0418 63.613 29.1285 63.613C29.4588 63.613 29.7802 63.7158 30.054 63.9122C30.3993 64.1603 30.6277 64.5278 30.6965 64.9475C30.7654 65.3674 30.6668 65.7888 30.4187 66.1342L27.1188 70.7308C26.606 71.4457 25.6118 71.6092 24.8968 71.0958ZM29.396 74.3257C28.6831 73.8138 28.5193 72.8175 29.0304 72.1044C29.0306 72.1041 29.0309 72.1038 29.031 72.1035L32.3309 67.5071C32.8426 66.7939 33.8401 66.6302 34.5531 67.1421C35.2663 67.6541 35.4299 68.651 34.9179 69.3642L33.4518 71.4066C33.4518 71.4066 33.4518 71.4066 33.4516 71.4067L31.6181 73.9608C31.106 74.6741 30.1095 74.838 29.396 74.3257ZM34.6313 76.53C33.9185 76.0182 33.7546 75.0224 34.2654 74.3091L35.3637 72.7794C35.8756 72.066 36.8729 71.9028 37.5859 72.4146C38.299 72.9264 38.4627 73.9235 37.9507 74.6367L36.8534 76.165C36.3415 76.8785 35.3443 77.0422 34.6313 76.53ZM61.0093 67.1469C60.5615 67.9027 59.5827 68.1533 58.8268 67.7057C57.5468 66.9474 49.2899 62.0556 48.4096 61.5341C47.8502 61.2028 47.1285 61.3874 46.7973 61.9466C46.466 62.5058 46.6506 63.2277 47.2098 63.5589L55.0852 68.2247L55.0854 68.2249C55.8415 68.6727 56.0937 69.6485 55.6441 70.4075C55.1962 71.1636 54.217 71.4138 53.4613 70.9664C50.5485 69.2408 48.1834 67.8396 45.5816 66.2982C45.0221 65.9669 44.3005 66.1514 43.9693 66.7106C43.6381 67.2699 43.8226 67.9917 44.3818 68.323L50.1846 71.7608L50.1859 71.7616C50.9424 72.2108 51.1921 73.1861 50.7435 73.9436C50.2956 74.6997 49.3166 74.9502 48.5606 74.5024L45.4463 72.6575C45.446 72.6574 45.4456 72.6572 45.4452 72.6569C45.4449 72.6567 45.4446 72.6566 45.4443 72.6564L43.1716 71.3099C42.6123 70.9785 41.8906 71.163 41.5593 71.7224C41.2281 72.2816 41.4126 73.0035 41.9718 73.3347L44.2449 74.6814C44.2452 74.6816 44.2456 74.6819 44.2459 74.6821C45.002 75.1299 45.2541 76.1055 44.8046 76.8646C44.3566 77.6207 43.3777 77.8711 42.6216 77.4233L39.9699 75.8525C41.1066 74.0985 40.6743 71.7347 38.9585 70.5032C38.4546 70.1416 37.8935 69.9164 37.3196 69.8197C37.9284 68.1921 37.4035 66.2917 35.9256 65.2308C35.0506 64.6024 34.0029 64.3853 33.0141 64.5403C32.8382 63.5114 32.2756 62.6102 31.4266 62.001C29.8301 60.8552 27.6604 61.0753 26.3202 62.4311C26.0479 61.9528 25.672 61.5238 25.1963 61.1824C23.8696 60.2302 22.1471 60.2213 20.8337 61.0233L20.2945 60.705L27.696 48.2114L28.0484 48.4192C29.6046 49.3411 31.5037 49.5333 33.2637 48.8527L35.5259 47.9781C36.8204 47.4778 37.5343 47.4452 38.8148 48.0494C37.977 48.9907 37.4796 50.2264 37.4796 51.5583V56.7763C37.4796 58.1622 38.6063 59.2905 39.9912 59.2914H39.9946C41.3837 59.2914 42.6899 58.7506 43.6726 57.7686C44.2454 57.1961 44.6682 56.5136 44.9216 55.7686C46.4412 56.6685 58.9954 64.1027 60.4509 64.965C60.817 65.1819 61.0766 65.5283 61.1821 65.9405C61.2876 66.3522 61.2262 66.7808 61.0093 67.1469ZM69.5449 59.1252L67.1195 60.5622C66.0532 61.1935 64.6723 60.8399 64.041 59.7742L60.3323 53.5141C60.0009 52.9549 59.2787 52.7703 58.7199 53.1013C58.1607 53.4325 57.976 54.1544 58.3071 54.7136L62.0159 60.9739C62.0857 61.0917 62.1615 61.2038 62.2399 61.313L61.2088 61.9153C61.0004 62.0388 60.7999 62.1747 60.6082 62.3224L44.6202 52.8544C43.837 52.3908 42.8438 52.956 42.8438 53.8669C42.8315 53.9372 42.9654 55.1469 42.0087 56.1033C41.4706 56.641 40.7552 56.9372 39.9945 56.9372C39.9938 56.9372 39.9932 56.9372 39.9926 56.9372C39.9046 56.9372 39.8331 56.8647 39.8331 56.7757V51.5577C39.8331 50.1946 40.7709 49.0446 42.0391 48.7235L45.9479 47.7342C47.3662 47.3758 48.1679 48.1331 50.2915 48.8519C51.7657 49.4222 53.3687 49.3871 54.7915 48.7794L55.5018 49.9785C55.8332 50.538 56.5551 50.7224 57.1141 50.3913C57.6734 50.06 57.8581 49.3381 57.527 48.7789L56.1279 46.4175C55.4949 45.3491 55.8476 43.9722 56.9159 43.3389L59.3412 41.9022C59.4471 41.8392 59.5873 41.8714 59.6529 41.9821L69.6245 58.8135C69.6888 58.9221 69.6534 59.061 69.5449 59.1252Z" fill="black"/>
</svg>
