<svg width="16" height="16" viewBox="0 0 16 16" fill="none" xmlns="http://www.w3.org/2000/svg">
<g clip-path="url(#clip0)">
<path d="M15.9375 8.24665C16.0208 8.09308 16.0208 7.90733 15.9375 7.75376C14.409 4.93956 11.4276 3.02905 8.00001 3.02905C4.57238 3.02905 1.59102 4.93959 0.062549 7.75376C-0.0208497 7.90733 -0.0208497 8.09308 0.062549 8.24665C1.59105 11.0608 4.57233 12.9714 7.99999 12.9714C11.4276 12.9714 14.409 11.0608 15.9375 8.24665ZM7.99999 11.8134C5.894 11.8134 4.18678 10.1062 4.18678 8.00022C4.18678 5.89425 5.894 4.18699 7.99999 4.18699C10.106 4.18699 11.8132 5.89423 11.8132 8.00022C11.8132 10.1062 10.106 11.8134 7.99999 11.8134Z" fill="#7A7A7A"/>
<path d="M8.00188 6.05664C7.84146 6.05664 7.68567 6.07622 7.53657 6.11285C7.68928 6.28958 7.78188 6.51973 7.78188 6.77162C7.78188 7.32849 7.33046 7.77994 6.77357 7.77994C6.52168 7.77994 6.29153 7.68736 6.1148 7.53463C6.07818 7.68373 6.05859 7.83952 6.05859 7.99994C6.05859 9.0732 6.92863 9.94321 8.00185 9.94321C9.07508 9.94321 9.94511 9.07317 9.94511 7.99994C9.94511 6.92671 9.07513 6.05664 8.00188 6.05664Z" fill="#7A7A7A"/>
</g>
<defs>
<clipPath id="clip0">
<rect width="16" height="16" fill="white"/>
</clipPath>
</defs>
</svg>
