<svg width="40" height="40" viewBox="0 0 40 40" fill="none" xmlns="http://www.w3.org/2000/svg">
<path d="M39.7857 21.1622C39.786 20.9674 39.7219 20.778 39.6034 20.6241L37.0864 17.3783L34.2917 11.473C33.8662 10.5796 33.1996 9.82518 32.3684 9.29601C31.5372 8.76683 30.575 8.48435 29.5919 8.48092H24.5015V7.12487C24.5015 6.89284 24.41 6.67031 24.2473 6.50624C24.0845 6.34217 23.8637 6.25 23.6336 6.25H5.07728C4.84709 6.25 4.62633 6.34217 4.46356 6.50624C4.3008 6.67031 4.20935 6.89284 4.20935 7.12487C4.20935 7.3569 4.3008 7.57943 4.46356 7.7435C4.62633 7.90757 4.84709 7.99974 5.07728 7.99974H22.7656V17.7895C22.7656 18.0216 22.8571 18.2441 23.0198 18.4082C23.1826 18.5722 23.4034 18.6644 23.6336 18.6644H35.893L38.0628 21.4596V28.9266H34.7213C34.5239 27.8021 33.9398 26.7835 33.0717 26.0497C32.2035 25.3158 31.1067 24.9137 29.9738 24.9137C28.8408 24.9137 27.744 25.3158 26.8758 26.0497C26.0077 26.7835 25.4236 27.8021 25.2262 28.9266H16.6164C16.4189 27.8021 15.8349 26.7835 14.9667 26.0497C14.0986 25.3158 13.0018 24.9137 11.8688 24.9137C10.7358 24.9137 9.63902 25.3158 8.77087 26.0497C7.90273 26.7835 7.31869 27.8021 7.12125 28.9266H4.64332C4.41313 28.9266 4.19237 29.0188 4.0296 29.1829C3.86683 29.3469 3.77539 29.5695 3.77539 29.8015C3.77539 30.0335 3.86683 30.2561 4.0296 30.4201C4.19237 30.5842 4.41313 30.6764 4.64332 30.6764H7.12993C7.33714 31.7917 7.92469 32.799 8.79088 33.5238C9.65707 34.2486 10.7474 34.6453 11.8731 34.6453C12.9989 34.6453 14.0892 34.2486 14.9554 33.5238C15.8216 32.799 16.4092 31.7917 16.6164 30.6764H25.2175C25.4247 31.7917 26.0123 32.799 26.8785 33.5238C27.7447 34.2486 28.835 34.6453 29.9607 34.6453C31.0865 34.6453 32.1768 34.2486 33.043 33.5238C33.9092 32.799 34.4967 31.7917 34.704 30.6764H38.0498C38.5102 30.6764 38.9517 30.492 39.2773 30.1639C39.6028 29.8357 39.7857 29.3907 39.7857 28.9266V21.1622ZM24.5015 10.2263H29.6049C30.2607 10.2265 30.9031 10.414 31.4576 10.767C32.0121 11.12 32.4561 11.6241 32.7381 12.221L34.9643 16.9278H24.5015V10.2263ZM11.8688 32.8985C11.2565 32.8994 10.6576 32.7171 10.1482 32.3747C9.63866 32.0324 9.2414 31.5453 9.00667 30.9752C8.77194 30.4051 8.7103 29.7777 8.82955 29.1722C8.9488 28.5668 9.24358 28.0107 9.67657 27.5742C10.1096 27.1378 10.6613 26.8406 11.2619 26.7204C11.8625 26.6002 12.485 26.6624 13.0506 26.899C13.6161 27.1356 14.0993 27.536 14.439 28.0496C14.7786 28.5632 14.9595 29.1668 14.9586 29.784C14.9575 30.6097 14.6316 31.4012 14.0524 31.985C13.4732 32.5689 12.6879 32.8974 11.8688 32.8985ZM29.9607 32.8985C29.3486 32.8985 28.7502 32.7155 28.2413 32.3726C27.7323 32.0297 27.3358 31.5423 27.1017 30.9722C26.8676 30.402 26.8066 29.7747 26.9264 29.1696C27.0461 28.5644 27.3412 28.0087 27.7744 27.5727C28.2075 27.1367 28.7593 26.84 29.3598 26.7201C29.9603 26.6003 30.5825 26.6627 31.1478 26.8994C31.7131 27.1361 32.1961 27.5366 32.5355 28.05C32.875 28.5635 33.0558 29.167 33.0549 29.784C33.0538 30.6104 32.7273 31.4026 32.1471 31.9866C31.567 32.5705 30.7806 32.8985 29.9607 32.8985Z" fill="#1C1C1D"/>
<path d="M8.67937 23.0636C8.67937 22.8316 8.58793 22.609 8.42516 22.445C8.26239 22.2809 8.04163 22.1887 7.81145 22.1887H3.03785C2.80766 22.1887 2.5869 22.2809 2.42413 22.445C2.26136 22.609 2.16992 22.8316 2.16992 23.0636C2.16992 23.2956 2.26136 23.5181 2.42413 23.6822C2.5869 23.8463 2.80766 23.9385 3.03785 23.9385H7.81145C8.04163 23.9385 8.26239 23.8463 8.42516 23.6822C8.58793 23.5181 8.67937 23.2956 8.67937 23.0636Z" fill="#1C1C1D"/>
<path d="M0.867927 18.6917H10.8491C11.0793 18.6917 11.3 18.5995 11.4628 18.4355C11.6256 18.2714 11.717 18.0489 11.717 17.8168C11.717 17.5848 11.6256 17.3623 11.4628 17.1982C11.3 17.0341 11.0793 16.942 10.8491 16.942H0.867927C0.637738 16.942 0.416978 17.0341 0.25421 17.1982C0.0914422 17.3623 0 17.5848 0 17.8168C0 18.0489 0.0914422 18.2714 0.25421 18.4355C0.416978 18.5995 0.637738 18.6917 0.867927 18.6917Z" fill="#1C1C1D"/>
<path d="M2.16992 12.568C2.16992 12.8001 2.26136 13.0226 2.42413 13.1867C2.5869 13.3507 2.80766 13.4429 3.03785 13.4429H13.019C13.2492 13.4429 13.47 13.3507 13.6327 13.1867C13.7955 13.0226 13.8869 12.8001 13.8869 12.568C13.8869 12.336 13.7955 12.1135 13.6327 11.9494C13.47 11.7853 13.2492 11.6932 13.019 11.6932H3.03785C2.80766 11.6932 2.5869 11.7853 2.42413 11.9494C2.26136 12.1135 2.16992 12.336 2.16992 12.568Z" fill="#1C1C1D"/>
</svg>
