<svg width="365" height="48" viewBox="0 0 365 48" fill="none" xmlns="http://www.w3.org/2000/svg">
<path d="M249.343 17.4575H222.065V43.644H249.343V17.4575Z" fill="#00B67A"/>
<path d="M277.712 17.4575H251.525V43.644H277.712V17.4575Z" fill="#00B67A"/>
<path d="M307.172 17.4575H279.894V43.644H307.172V17.4575Z" fill="#00B67A"/>
<path d="M336.631 17.4575H309.354V43.644H336.631V17.4575Z" fill="#00B67A"/>
<path d="M365 17.4575H338.813V43.644H365V17.4575Z" fill="#00B67A"/>
<path d="M235.672 35.1081L239.743 34.0811L241.424 39.2799L235.672 35.1081ZM244.978 28.4973H237.869L235.672 21.8223L233.539 28.4973H226.43L232.182 32.6049L229.984 39.2799L235.736 35.1722L239.291 32.6049L244.978 28.4973Z" fill="white"/>
<path d="M264.619 35.1081L268.915 34.0811L270.688 39.2799L264.619 35.1081ZM274.438 28.4973H266.937L264.619 21.8223L262.3 28.4973H254.799L260.868 32.6049L258.549 39.2799L264.619 35.1722L268.369 32.6049L274.438 28.4973Z" fill="white"/>
<path d="M293.533 35.1081L297.59 34.0811L299.265 39.2799L293.533 35.1081ZM302.807 28.4973H295.722L293.533 21.8223L291.343 28.4973H284.258L289.99 32.6049L287.801 39.2799L293.533 35.1722L297.075 32.6049L302.807 28.4973Z" fill="white"/>
<path d="M322.993 35.1081L327.05 34.0811L328.725 39.2799L322.993 35.1081ZM332.267 28.4973H325.182L322.993 21.8223L320.803 28.4973H313.718L319.45 32.6049L317.261 39.2799L322.993 35.1722L326.535 32.6049L332.267 28.4973Z" fill="white"/>
<path d="M351.907 35.1081L356.203 34.0811L357.976 39.2799L351.907 35.1081ZM361.727 28.4973H354.225L351.907 21.8223L349.588 28.4973H342.087L348.156 32.6049L345.838 39.2799L351.907 35.1722L355.658 32.6049L361.727 28.4973Z" fill="white"/>
<path d="M52.1118 17.0332H72.1028V20.7593H64.214V41.5188H59.911V20.6706H52.1118V17.0332ZM71.2064 23.7756H74.8819V27.2355H74.9715C75.0996 26.715 75.3447 26.2298 75.6887 25.8161C76.0371 25.3382 76.4608 24.9189 76.9437 24.5741C77.4171 24.1757 77.9655 23.8742 78.5573 23.6869C79.1194 23.4337 79.733 23.3122 80.3503 23.332H81.3364C81.5156 23.332 81.6949 23.4207 81.8742 23.4207V27.1468C81.612 27.0736 81.3394 27.0437 81.0674 27.0581C80.7985 27.0581 80.5295 26.9694 80.2606 26.9694C79.6151 26.9579 78.9741 27.0788 78.378 27.3242C77.7801 27.5758 77.256 27.9724 76.8541 28.4776C76.3918 29.034 76.0281 29.6639 75.7783 30.3406C75.5089 31.1711 75.3876 32.0417 75.4197 32.9133V41.3414H71.4753V23.7756H71.2064ZM99.8034 41.4301H95.9486V38.946H95.859C95.3837 39.8604 94.6314 40.6049 93.7075 41.0752C92.8056 41.5851 91.7877 41.8598 90.7492 41.8737C88.4184 41.8737 86.7151 41.2526 85.6394 40.0993C84.5636 38.946 84.0257 37.1717 84.0257 34.8651V23.7756H88.0598V34.599C88.0598 36.1958 88.3287 37.2604 88.9562 37.8814C89.2843 38.2062 89.6766 38.4605 90.1085 38.6284C90.5404 38.7963 91.0026 38.8742 91.4663 38.8573C92.1718 38.8931 92.8764 38.7718 93.5282 38.5025C94.0263 38.2505 94.4803 37.921 94.8729 37.5266C95.2518 37.1014 95.5005 36.5783 95.59 36.0184C95.7733 35.3838 95.8638 34.7266 95.859 34.0667V23.7756H99.8034V41.4301ZM106.527 35.7523C106.521 36.2328 106.642 36.7065 106.878 37.1266C107.114 37.5467 107.456 37.8986 107.872 38.1476C108.687 38.6203 109.616 38.8656 110.561 38.8573C110.981 38.8689 111.402 38.8392 111.816 38.7686C112.274 38.692 112.725 38.5732 113.161 38.4137C113.555 38.2831 113.9 38.0353 114.147 37.704C114.423 37.3511 114.552 36.9062 114.505 36.462C114.512 36.2288 114.467 35.9969 114.374 35.7825C114.281 35.568 114.143 35.3761 113.967 35.22C113.589 34.8531 113.128 34.5795 112.623 34.4215C112.085 34.2441 111.457 34.0667 110.74 33.8892C110.023 33.7118 109.306 33.6231 108.589 33.4456C107.86 33.2797 107.142 33.0723 106.437 32.8246C105.806 32.6011 105.204 32.3032 104.644 31.9375C104.088 31.5642 103.653 31.0407 103.389 30.4293C103.043 29.7425 102.889 28.977 102.941 28.2114C102.918 27.358 103.169 26.5194 103.658 25.8161C104.145 25.1736 104.754 24.6312 105.451 24.2192C106.202 23.8088 107.022 23.5382 107.872 23.4207C108.697 23.2492 109.538 23.16 110.382 23.1546C111.285 23.1553 112.186 23.2444 113.071 23.4207C113.875 23.5987 114.636 23.9302 115.312 24.3966C116.006 24.8175 116.59 25.3952 117.015 26.0822C117.482 26.8339 117.759 27.6861 117.822 28.5663H113.698C113.666 28.1758 113.534 27.7999 113.315 27.4739C113.095 27.148 112.795 26.8828 112.443 26.7032C111.715 26.3698 110.914 26.2175 110.113 26.2597C109.782 26.2489 109.45 26.2787 109.127 26.3484C108.759 26.395 108.398 26.4844 108.051 26.6145C107.723 26.6828 107.434 26.8734 107.244 27.1468C107.115 27.273 107.016 27.426 106.954 27.5948C106.892 27.7636 106.868 27.9439 106.885 28.1227C106.879 28.3429 106.925 28.5616 107.018 28.7617C107.111 28.9617 107.25 29.1378 107.423 29.276C107.83 29.5826 108.284 29.8223 108.768 29.9857C109.306 30.1632 109.933 30.3406 110.651 30.518C111.368 30.6955 112.085 30.7842 112.802 30.9616C113.531 31.1276 114.249 31.3349 114.954 31.5826C115.613 31.8066 116.245 32.1043 116.836 32.4698C117.396 32.8634 117.856 33.3796 118.181 33.9779C118.558 34.6562 118.743 35.4222 118.719 36.1958C118.739 37.1323 118.491 38.0553 118.001 38.8573C117.537 39.5976 116.889 40.2083 116.119 40.6316C115.315 41.1004 114.435 41.4304 113.519 41.6075C112.603 41.7797 111.673 41.8688 110.74 41.8737C109.683 41.8975 108.627 41.7781 107.603 41.5188C106.698 41.2985 105.846 40.9068 105.092 40.3655C104.388 39.8453 103.807 39.1792 103.389 38.4137C102.983 37.5524 102.769 36.6143 102.762 35.6635H106.527V35.7523ZM119.525 23.7756H122.484V18.4527H126.428V23.7756H130.014V26.7032H126.428V36.1958C126.405 36.5531 126.435 36.9118 126.518 37.2604C126.511 37.5226 126.607 37.7772 126.787 37.9702C126.922 38.1633 127.108 38.3166 127.325 38.4137C127.671 38.5307 128.034 38.5907 128.4 38.5912H129.207C129.476 38.5912 129.745 38.5025 130.014 38.5025V41.5188C129.566 41.6075 129.118 41.6075 128.759 41.6962C128.345 41.7699 127.924 41.7996 127.504 41.7849C126.659 41.8097 125.814 41.7201 124.994 41.5188C124.405 41.3876 123.872 41.0774 123.47 40.6316C123.093 40.2401 122.843 39.7457 122.753 39.2122C122.64 38.5674 122.58 37.9147 122.573 37.2604V26.7032H119.615V23.7756H119.525ZM132.793 23.7756H136.558V26.1709H136.648C137.136 25.1825 137.961 24.3969 138.979 23.953C139.99 23.489 141.091 23.2469 142.206 23.2433C143.467 23.2297 144.718 23.4712 145.881 23.953C146.893 24.429 147.782 25.1268 148.481 25.9935C149.215 26.8704 149.737 27.9023 150.005 29.0099C150.365 30.1893 150.547 31.4151 150.543 32.6472C150.526 33.8136 150.376 34.9743 150.095 36.1071C149.838 37.1749 149.349 38.1741 148.66 39.0347C148.029 39.8956 147.199 40.5951 146.24 41.0752C145.19 41.6193 144.019 41.8938 142.833 41.8737C142.262 41.8585 141.692 41.7992 141.13 41.6962C140.54 41.6004 139.966 41.4212 139.427 41.1639C138.385 40.6943 137.488 39.9595 136.827 39.0347H136.737V47.9063H132.793V23.7756ZM146.599 32.6472C146.603 31.8704 146.513 31.096 146.33 30.3406C146.124 29.624 145.822 28.9378 145.433 28.3001C145.041 27.7183 144.52 27.2328 143.909 26.8807C143.252 26.5183 142.51 26.3347 141.758 26.3484C141.038 26.2971 140.317 26.4244 139.659 26.7188C139.002 27.0131 138.429 27.4652 137.993 28.034C137.115 29.3789 136.677 30.9586 136.737 32.5585C136.718 33.4004 136.839 34.2397 137.096 35.0425C137.258 35.7633 137.597 36.4335 138.082 36.9943C138.535 37.5303 139.081 37.981 139.696 38.325C140.361 38.6583 141.103 38.8113 141.847 38.7686C142.63 38.8043 143.407 38.6197 144.088 38.2363C144.717 37.9089 145.244 37.4182 145.612 36.8168C146.037 36.2302 146.341 35.5672 146.509 34.8651C146.509 34.1554 146.599 33.3569 146.599 32.6472ZM153.501 17.0332H157.446V20.7593H153.501V17.0332ZM153.501 23.7756H157.446V41.5188H153.501V23.7756ZM161.031 17.0332H164.976V41.5188H161.031V17.0332ZM176.988 41.9624C175.67 41.9665 174.362 41.7257 173.134 41.2526C172.059 40.7907 171.085 40.128 170.265 39.3009C169.463 38.4626 168.852 37.4644 168.472 36.3733C168.032 35.1803 167.819 33.9169 167.845 32.6472C167.819 31.3775 168.032 30.1141 168.472 28.9211C168.855 27.8273 169.469 26.8266 170.273 25.9854C171.076 25.1442 172.052 24.4817 173.134 24.0418C174.36 23.5605 175.669 23.3195 176.988 23.332C178.307 23.3279 179.614 23.5687 180.843 24.0418C181.917 24.5037 182.891 25.1664 183.712 25.9935C184.513 26.8318 185.125 27.83 185.505 28.9211C185.945 30.1141 186.158 31.3775 186.132 32.6472C186.165 33.9175 185.952 35.1822 185.505 36.3733C185.16 37.4803 184.544 38.4859 183.712 39.3009C182.908 40.1474 181.93 40.813 180.843 41.2526C179.617 41.7339 178.308 41.975 176.988 41.9624ZM176.988 38.8573C177.77 38.8817 178.544 38.6979 179.23 38.325C179.847 37.9491 180.394 37.4687 180.843 36.9056C181.285 36.2959 181.59 35.6004 181.74 34.8651C181.923 34.1097 182.013 33.3353 182.009 32.5585C182.008 31.8113 181.917 31.0668 181.74 30.3406C181.534 29.624 181.232 28.9378 180.843 28.3001C180.418 27.7144 179.867 27.2296 179.23 26.8807C178.54 26.518 177.769 26.3349 176.988 26.3484C176.207 26.324 175.433 26.5078 174.747 26.8807C174.11 27.2296 173.559 27.7144 173.134 28.3001C172.692 28.9098 172.387 29.6053 172.237 30.3406C172.06 31.0668 171.969 31.8113 171.968 32.5585C171.969 33.335 172.059 34.1088 172.237 34.8651C172.443 35.5817 172.744 36.2679 173.134 36.9056C173.559 37.4913 174.11 37.9761 174.747 38.325C175.437 38.6877 176.208 38.8708 176.988 38.8573ZM187.208 23.7756H190.166V18.4527H194.111V23.7756H197.697V26.7032H194.111V36.1958C194.088 36.5531 194.118 36.9118 194.2 37.2604C194.193 37.5226 194.29 37.7772 194.469 37.9702C194.605 38.1633 194.791 38.3166 195.007 38.4137C195.354 38.5307 195.717 38.5907 196.083 38.5912H196.89C197.159 38.5912 197.428 38.5025 197.697 38.5025V41.5188C197.248 41.6075 196.8 41.6075 196.442 41.6962C196.028 41.7699 195.607 41.7996 195.187 41.7849C194.342 41.8097 193.497 41.7201 192.676 41.5188C192.087 41.3876 191.555 41.0774 191.152 40.6316C190.775 40.2401 190.526 39.7457 190.435 39.2122C190.346 38.6799 190.256 37.9702 190.166 37.2604V26.7032H187.208V23.7756Z" fill="#191919"/>
<path d="M23.8735 0L18.3155 17.0334H0.207031L14.8193 27.5019L9.26126 44.5354L23.8735 33.9782L38.4858 44.5354L32.9277 27.5019L47.54 17.0334H29.4316L23.8735 0Z" fill="#00B67A"/>
<path d="M34.1826 31.4059L32.9275 27.5024L23.8733 33.9787L34.1826 31.4059Z" fill="#005128"/>
</svg>
